<svg width="150" height="45" viewBox="0 0 150 45" fill="none" xmlns="http://www.w3.org/2000/svg">
<path d="M41.0061 44.1788H51.2697L51.2808 14.8424H41.0061V44.1788Z" fill="url(#paint0_linear_502_32)"/>
<path d="M41.0061 10.1589H51.2697L51.2808 0.452993H41.0061V10.1589Z" fill="url(#paint1_linear_502_32)"/>
<path d="M100.913 26.2941V15.626C100.926 13.9913 100.818 12.3577 100.59 10.7384C99.5121 3.49634 95.5957 0.445703 87.0254 0.445703H55.9939V44.1532H66.2167V10.1152H84.4799C88.4445 10.1152 90.2231 11.4382 90.5306 16.2419V40.8402C90.5306 41.7179 90.8851 42.5597 91.516 43.1803C92.1469 43.8009 93.0027 44.1496 93.895 44.1496H100.935L100.913 26.2941Z" fill="url(#paint2_linear_502_32)"/>
<path d="M120.999 0.00104659C119.337 -0.011831 117.676 0.0941453 116.03 0.318138C108.672 1.37875 105.567 5.24945 105.567 13.6578V44.186H150V34.1302H115.4V16.1727C115.4 12.2765 116.749 10.5234 121.625 10.2209H146.636C147.525 10.2199 148.377 9.87281 149.007 9.25543C149.637 8.63804 149.992 7.80057 149.996 6.92602V0.00104659H120.999Z" fill="url(#paint3_linear_502_32)"/>
<path d="M33.1917 34.4583C33.1176 34.4583 33.0398 34.4583 32.9657 34.4583H16.2587C12.3311 34.4583 10.6119 33.179 10.308 28.3789V0.452992L0 0.445703V28.9803C0 37.5964 2.28614 42.1341 8.40723 43.6138C10.1672 44.0056 11.9682 44.1903 13.7724 44.1642H36.2893C36.3128 44.0097 36.3252 43.8538 36.3264 43.6977V37.7531C36.3226 36.9177 35.9971 36.1148 35.4154 35.5061C34.8337 34.8974 34.0391 34.5282 33.1917 34.4729" fill="url(#paint4_linear_502_32)"/>
<defs>
<linearGradient id="paint0_linear_502_32" x1="150" y1="22" x2="-7.62015e-07" y2="22" gradientUnits="userSpaceOnUse">
<stop stop-color="#C04DFF"/>
<stop offset="1" stop-color="#FF9101"/>
</linearGradient>
<linearGradient id="paint1_linear_502_32" x1="150" y1="22" x2="-7.62015e-07" y2="22" gradientUnits="userSpaceOnUse">
<stop stop-color="#C04DFF"/>
<stop offset="1" stop-color="#FF9101"/>
</linearGradient>
<linearGradient id="paint2_linear_502_32" x1="150" y1="22" x2="-7.62015e-07" y2="22" gradientUnits="userSpaceOnUse">
<stop stop-color="#C04DFF"/>
<stop offset="1" stop-color="#FF9101"/>
</linearGradient>
<linearGradient id="paint3_linear_502_32" x1="150" y1="22" x2="-7.62015e-07" y2="22" gradientUnits="userSpaceOnUse">
<stop stop-color="#C04DFF"/>
<stop offset="1" stop-color="#FF9101"/>
</linearGradient>
<linearGradient id="paint4_linear_502_32" x1="150" y1="22" x2="-7.62015e-07" y2="22" gradientUnits="userSpaceOnUse">
<stop stop-color="#C04DFF"/>
<stop offset="1" stop-color="#FF9101"/>
</linearGradient>
</defs>
</svg>
