<svg width="81" height="26" viewBox="0 0 81 26" fill="none" xmlns="http://www.w3.org/2000/svg">
<g clip-path="url(#clip0_334_56)">
<path d="M22.1431 25.1243H27.6854L27.6914 9.01953H22.1431V25.1243Z" fill="white"/>
<path d="M22.1431 6.44836H27.6854L27.6914 1.12012H22.1431V6.44836Z" fill="white"/>
<path d="M54.493 15.3062V9.44971C54.5002 8.55229 54.442 7.65554 54.3189 6.76658C53.7367 2.79091 51.6218 1.11621 46.9938 1.11621H30.2368V25.1103H35.7571V6.42444H45.6192C47.7601 6.42444 48.7206 7.15074 48.8866 9.78785V23.2915C48.8866 23.7733 49.078 24.2355 49.4187 24.5762C49.7594 24.9169 50.2215 25.1082 50.7034 25.1082H54.505L54.493 15.3062Z" fill="white"/>
<path d="M65.3394 0.872157C64.442 0.865087 63.5453 0.923265 62.6563 1.04623C58.6826 1.62847 57.0059 3.75337 57.0059 8.3693V25.1283H81V19.608H62.3162V9.74988C62.3162 7.61099 63.0445 6.64858 65.6776 6.48251H79.1832C79.6633 6.48199 80.1237 6.29144 80.4638 5.95252C80.8038 5.6136 80.9959 5.15385 80.998 4.67375V0.872157H65.3394Z" fill="white"/>
<path d="M17.9235 19.788C17.8835 19.788 17.8415 19.788 17.8015 19.788H8.77969C6.6588 19.788 5.73041 19.0858 5.56634 16.4507V1.12021L0 1.11621V16.7808C0 21.5108 1.23452 24.0018 4.53991 24.8141C5.49028 25.0292 6.46283 25.1307 7.43712 25.1163H19.5962C19.6089 25.0315 19.6156 24.946 19.6162 24.8602V21.5969C19.6142 21.1383 19.4384 20.6975 19.1243 20.3633C18.8102 20.0291 18.3811 19.8265 17.9235 19.7961" fill="white"/>
</g>
<defs>
<clipPath id="clip0_334_56">
<rect width="81" height="26" fill="white"/>
</clipPath>
</defs>
</svg>
