<svg width="81" height="25" viewBox="0 0 81 25" fill="none" xmlns="http://www.w3.org/2000/svg">
<path d="M22.1433 24.1167H27.6856L27.6916 8.1023H22.1433V24.1167Z" fill="url(#paint0_linear_334_48)"/>
<path d="M22.1433 5.54564H27.6856L27.6916 0.247284H22.1433V5.54564Z" fill="url(#paint1_linear_334_48)"/>
<path d="M54.4929 14.3537V8.53007C54.5001 7.63769 54.4419 6.74597 54.3188 5.86199C53.7366 1.90862 51.6217 0.243305 46.9937 0.243305H30.2367V24.1028H35.757V5.52176H45.6191C47.76 5.52176 48.7205 6.244 48.8865 8.86631V22.2943C48.8865 22.7734 49.0779 23.2329 49.4186 23.5717C49.7593 23.9105 50.2214 24.1008 50.7033 24.1008H54.5049L54.4929 14.3537Z" fill="url(#paint2_linear_334_48)"/>
<path d="M65.3394 0.000571321C64.442 -0.00645845 63.5453 0.051393 62.6563 0.173668C58.6826 0.752647 57.0059 2.86562 57.0059 7.45567V24.1207H81V18.6314H62.3162V8.82851C62.3162 6.70161 63.0445 5.7446 65.6776 5.57946H79.1832C79.6633 5.57894 80.1237 5.38947 80.4638 5.05245C80.8038 4.71542 80.9959 4.25826 80.998 3.78085V0.000571321H65.3394Z" fill="url(#paint3_linear_334_48)"/>
<path d="M17.9235 18.8104C17.8835 18.8104 17.8415 18.8104 17.8015 18.8104H8.77969C6.6588 18.8104 5.73041 18.1121 5.56634 15.4917V0.247284L0 0.243305V15.82C0 20.5235 1.23452 23.0006 4.53991 23.8084C5.49028 24.0222 6.46283 24.123 7.43712 24.1088H19.5962C19.6089 24.0245 19.6156 23.9394 19.6162 23.8541V20.609C19.6142 20.153 19.4384 19.7147 19.1243 19.3824C18.8102 19.0501 18.3811 18.8486 17.9235 18.8184" fill="url(#paint4_linear_334_48)"/>
<defs>
<linearGradient id="paint0_linear_334_48" x1="0" y1="12.0665" x2="81" y2="12.0665" gradientUnits="userSpaceOnUse">
<stop stop-color="#FF9101"/>
<stop offset="1" stop-color="#C04DFF"/>
</linearGradient>
<linearGradient id="paint1_linear_334_48" x1="0" y1="12.0665" x2="81" y2="12.0665" gradientUnits="userSpaceOnUse">
<stop stop-color="#FF9101"/>
<stop offset="1" stop-color="#C04DFF"/>
</linearGradient>
<linearGradient id="paint2_linear_334_48" x1="0" y1="12.0665" x2="81" y2="12.0665" gradientUnits="userSpaceOnUse">
<stop stop-color="#FF9101"/>
<stop offset="1" stop-color="#C04DFF"/>
</linearGradient>
<linearGradient id="paint3_linear_334_48" x1="0" y1="12.0665" x2="81" y2="12.0665" gradientUnits="userSpaceOnUse">
<stop stop-color="#FF9101"/>
<stop offset="1" stop-color="#C04DFF"/>
</linearGradient>
<linearGradient id="paint4_linear_334_48" x1="0" y1="12.0665" x2="81" y2="12.0665" gradientUnits="userSpaceOnUse">
<stop stop-color="#FF9101"/>
<stop offset="1" stop-color="#C04DFF"/>
</linearGradient>
</defs>
</svg>
